# xmcd
#
# Track frame offsets: 
#        150
#        13844
#        28831
#        44069
#        58704
#        72579
#        84285
#        96529
#        109353
#        120980
#
# Disc length: 1796 seconds
#
# Revision: 0
# Processed by: cddbd v1.5.2PL0 Copyright (c) Steve Scherf et al.
# Submitted via: ExactAudioCopy v1.3
#
DISCID=8f07020a
DTITLE=Lacy J. Dalton - Platinum Collection (Country Powerhouse)
DYEAR=2012
DGENRE=Country
TTITLE0=16th Avenue
TTITLE1=Everybody Makes Mistakes
TTITLE2=Takin' It Easy
TTITLE3=Working Class Man
TTITLE4=Whisper
TTITLE5=Hillbilly Girl With The Blues
TTITLE6=Dream Baby (How Long Must I Dream)
TTITLE7=Crazy Blue Eyes
TTITLE8=Hard Times
TTITLE9=Tennessee Waltz
EXTD=
EXTT0=
EXTT1=
EXTT2=
EXTT3=
EXTT4=
EXTT5=
EXTT6=
EXTT7=
EXTT8=
EXTT9=
PLAYORDER=
